<svg xmlns="http://www.w3.org/2000/svg" viewBox="0 0 1000 759" class="injected-svg logo__svg logo__svg--white" data-src="/etc/designs/pwcdigital/pond/clientlib/assets/PwC_W_Logo.24d38568d01d862cee31e15070498c49.svg" xmlns:xlink="http://www.w3.org/1999/xlink">
    <g stroke="none" stroke-width="1" fill="none" fill-rule="evenodd">
        <g fill="#FFFFFF" fill-rule="nonzero">
            <g class="pwc" transform="translate(-128.49892 323.79178)">
                <path d="M805.3 177.5c-31.7 5.6-48.6 29.6-48.6 71.1 0 42.3 22.5 70.4 55.6 70.4 16.2 0 30.3-5.6 59.9-20.4v34.5c-35.9 16.9-57 21.1-85.2 21.1-31.7 0-54.2-7.7-71.8-26.8-18.3-18.3-28.2-42.3-28.2-69.7 0-59.9 45.1-101.4 110.6-101.4 43 0 73.2 20.4 73.2 49.3 0 19-14.1 32.4-34.5 32.4-10.6 0-19-3.5-31-9.9"></path>
                <path d="M646.8 257.7c28.9-35.9 39.4-50.7 39.4-68.3s-14.1-33.1-33.8-33.1c-11.3 0-21.8 6.3-26.8 12v73.9l-47.2 63.4V161.9h-45.1l-74.6 123.2V161.9h-25.4L365 177.4V195l37.3 3.5v152.8h47.2L521.3 233v118.3h52.8"></path>
                <path d="M222.2 327.5h10.6c38 0 59.2-23.2 59.2-69.7 0-38.7-16.9-59.9-48.6-59.9-4.2 0-10.6.7-21.1 2.8l-.1 126.8zm0 83.1l31 7v17.6H131.4v-17.6l28.2-7V197.9h-31v-17.6l73.9-22.5h19.7v25.4c34.5-21.1 46.5-24.6 64.8-24.6 40.8 0 71.8 38 71.8 90.8 0 60.6-41.5 102.1-104.9 102.1-7 0-19-.7-31.7-1.4"></path>
            </g>
            <g shape-rendering="crispEdges" transform="translate(450.000000, 0.000000)">
                <polygon opacity="0.34" points="186.3 0 372 0 372 36.4 186.3 36.4"></polygon>
                <polygon opacity="0.21" points="372 36.4 408.5 36.4 408.5 93 372 93"></polygon>
                <polygon opacity="0.44" points="372 93 372 36.4 186.3 36.4 186.3 93"></polygon>
                <polygon opacity="0.29" points="408.6 93.1 502.7 93.1 502.7 232.9 408.6 232.9"></polygon>
                <polygon opacity="0.4" points="372 93.1 408.5 93.1 408.5 232.9 372 232.9"></polygon>
                <polygon opacity="0.52" points="302.4 232.8 372 232.8 372 93.1 186.3 93.1 186.3 186.1 302.4 186.1"></polygon>
                <polygon opacity="0.58" points="186.3 186.1 302.4 186.1 302.4 232.8 186.3 232.8"></polygon>
                <polygon opacity="0.34" points="502.8 232.8 502.8 232.9 502.9 232.9 502.9 325.9 502.8 325.9 550 325.9 550 232.8"></polygon>
                <polygon opacity="0.51" points="408.6 232.9 502.7 232.9 502.7 325.9 408.6 325.9"></polygon>
                <polygon opacity="0.57" points="372 232.9 408.5 232.9 408.5 325.9 372 325.9"></polygon>
                <polygon opacity="0.63" points="302.5 232.9 371.9 232.9 371.9 325.9 302.5 325.9"></polygon>
                <polygon opacity="0.68" points="186.3 232.9 302.4 232.9 302.4 325.9 186.3 325.9"></polygon>
                <polygon opacity="0.68" points="0 325.9 186.2 325.9 186.2 372.5 0 372.5"></polygon>
            </g>
        </g>
    </g>
</svg>