<svg xmlns="http://www.w3.org/2000/svg" width="107" height="24" viewBox="0 0 107 24">
    <path d="M98.718 13.444c-.634.497-3.012 1.474-7.13 2.933-2.477.718-4.458 1.328-5.95 1.822-.464-3.115-1.03-5.975-1.702-8.584v-.112l4.673-2.756c-.543.876-.815 1.66-.815 2.35 0 .977.381 1.718 1.147 2.224 0 .976 3.258 1.683 9.777 2.123zm-14.76 8.518l.273-.127v.061c-.106.02-.197.039-.272.066zm-10.591-3.968l-.212.429h-.222c.09-.363.196-.545.32-.545h.11v.116h.004zM62.084 8.932h-.223c.23-.278.77-1.525 1.62-3.74 0-.657 1.362-.985 4.091-.985h.212l2.151.1v.116c-.928 1.116-3.544 2.621-7.851 4.509zm-9.101 8.155c-.2-.945-.45-2.018-.748-3.227l1.869-.316c.12-.016.238-.031.355-.043-.604 1.367-1.095 2.56-1.476 3.586zm2.265-6.727h.211v.1h-.211v-.1zm.407-.116l.317-.093c-.033.07-.064.14-.098.209h-.219v-.116zm-.196.86v-.216c.053 0 .117-.007.178-.015-.034.07-.065.143-.099.212l-.079.02zm-9.988.417v-.1c.781-1.409 1.268-2.154 1.457-2.239l.31 1.706c0 .112-.59.32-1.767.633zm-7.334-7.113c-2.043 1.667-4.277 3.08-6.7 4.234h-.11l2.125-3.651c0-.344 1.525-.58 4.575-.695h.11v.112zm-13.065 7.075c-1.506.768-2.703 1.455-3.593 2.069.049-.413.094-.88.135-1.398 0-.783-.268-1.335-.804-1.655-.562-1.097-3.627-1.88-9.195-2.351h-.11V7.92c4.508-2.115 8.26-3.172 11.26-3.172h.692c.596 0 .985-.44 1.17-1.309v.741c.823 1.752 1.68 2.629 2.57 2.629h.11l-2.235 4.674zm-3.68 3.084l-.072.073.034-.189h.038v.116zM2.31 20.962h.234v.116H2.31v-.116zM107 1.062h-.11l-.109-.116c-.577-.548-1.038-.822-1.382-.822h-.234c-4.197-.008-8.587 1.347-13.177 4.052-.053-.011-.114-.015-.178-.015l.223-.328V3.72l-.332-.116h-.098l-.114.112-.211-.216c.57-.243.853-.429.853-.556l-1.185.212v-.1l.332-.112 1.4-1.324-.754.112-.11-.328c.215 0 .32-.077.32-.228h-.531l-.114.116v-.116l-.11-.1-.754.328h-.211v-.112c.215 0 .32-.07.32-.216h-.109l-9.709 5.052h-.098c1.008-1.412 1.51-2.408 1.514-2.98v-.216l-.321-.883c-.846-.954-1.495-1.432-1.94-1.432h-.321c-.933.185-2.37 1.833-4.322 4.948-2.507 4.485-4.447 8.202-5.829 11.15-.268-1.597-.656-3.52-1.174-5.777 4.315-2.25 6.47-3.86 6.47-4.833v-.328l-.109-.671C73.926 1.88 71.094.259 66.289.255h-.966C61.88.25 59.973.54 59.61 1.13c-2.597.93-3.925 1.59-3.982 1.98v.544c0 .641.751 1.486 2.257 2.532-.641 1.305-1.23 2.525-1.766 3.667l-1.386.077h-.113v-.216l-3.325.425c-.167 0-.268-.247-.31-.745l-.11-.116c-.358-3.177-.664-5.3-.917-6.373-.441-1.204-1.657-1.81-3.642-1.814-.257 0-.57.14-.94.417l-.721 2.135-1.174 2.107-.634-2.729c-.993-1.906-2.782-2.86-5.36-2.864-3.99.375-6.705.718-8.147 1.027-2.446.479-3.99 1.096-4.639 1.857.012-.074.023-.143.03-.22l-.11-1.417.114-.467h-.11l-.109-.116C23.936.274 23.475 0 23.128 0h-.234c-5.043-.008-10.37 1.942-15.979 5.851-.924 1.212-1.389 2.27-1.389 3.17 0 .976.382 1.717 1.148 2.226 0 .977 3.257 1.69 9.773 2.139-.634.498-3.013 1.47-7.135 2.922C3.102 18.102 0 19.198 0 19.592v.112c.23 0 .347.081.347.24H.57v.111l-.113.112v.112H.69l.113-.112c0 .236.151.355.457.355v.355l-.113.112.69.244v.111h-.234v.24h.348v.228c-.378.057-.57.177-.57.35v.128l1.26-.228v.24l-.804.34v.127l.11.112c5.507-1.398 9.837-2.648 12.996-3.748 2.103-.788 4.02-1.845 5.753-3.165.234 0 .434-.436.604-1.3l.196.3.457-.112.555.467v.116l-.113.112.332.116c-1.869 3.956-2.8 6.314-2.805 7.075v.227l.778.911.223-.227.222.227.333-.112h.109l.125.116.445-.112h.11V24c.668 0 1.113-.452 1.336-1.362.89-1.826 1.453-2.74 1.683-2.74v-.113l-.11-.116h.224c.29-.992.513-1.49.668-1.49h.11l.109.116v-.112h.222c.299-.606.63-1.061 1.004-1.362.148 0 .484-.49 1.004-1.478.14-.356 1.892-1.266 5.259-2.733 4.601-2.343 7.568-4.153 8.904-5.427l-1.577 2.833c-1.586 2.13-2.733 3.794-3.443 4.998-1.668 1.826-2.503 3.135-2.503 3.926v.745c0 .143.14.216.42.216.264.42.54.633.826.633v.216h.211l.099-.1c0 .312.207.594.63.849h.098l.098-.1.212.532c.286 0 .672-.285 1.15-.857 1.39-2.01 2.22-3.107 2.504-3.28 0-.691 2.185-1.649 6.556-2.872h.099c.687 3.616 1.204 5.708 1.547 6.284l.838.849 1.038-.429.408.328.32-.216v.216h.212v-.328c.004.004.008.004.012.008.052.085.105.181.147.297l.188-.065c.125.061.25.092.37.092h.08c.011.027.019.054.019.089l.21-.228c.718.255 1.077.548 1.077.888h.11c.57-1.467.928-2.196 1.079-2.196.332-.954.547-1.432.645-1.44.812-1.532 1.352-2.296 1.623-2.296l-.222-.228.547-1.212h.11v.112l-.435 1.212h.321l.114-.556c.271-.135.63-.718 1.08-1.756l4.846-1.648c.853 3.581 1.85 6.739 2.99 9.471.313 0 .494.186.543.556l.212-.227.294.061c.004.031.011.058.011.09l.208-.043.026.007c.027 0 .053-.011.083-.027l.227-.046h.098l.11.116.641.216c.287 0 .434.147.43.444h.321c.034-.598.43-1.664 1.193-3.196.46 0 .751-.216.865-.656v-.228h-.11l-.434.668h-.098v-.112l.532-.656h.11l.11.1.112-.328h.098v.112l-.098.444v.112h.212c.464-1.027.785-1.54.966-1.54l1.733-2.752c.09-.714 1.351-1.745 3.774-3.092h.11l1.39 5.956c-.005 1.466.822 2.829 2.48 4.087l.29-.135c-.087.058-.132.127-.132.212v.128l1.26-.24v.24l-.804.34v.127l.114.112c5.507-1.398 9.837-2.648 12.996-3.748 2.103-.788 4.02-1.845 5.753-3.165.404 0 .71-1.29.921-3.868 0-.783-.268-1.335-.8-1.656-.559-1.096-3.624-1.883-9.192-2.366h-.11V7.99c4.512-2.108 8.267-3.161 11.265-3.158h.69c.718 0 1.137-.625 1.265-1.88l-.11-1.416.11-.475z"/>
</svg>
