<svg xmlns="http://www.w3.org/2000/svg" viewBox="0 0 1000 759" class="injected-svg logo__svg logo__svg--color" data-src="/etc/designs/pwcdigital/pond/clientlib/assets/PwC_Logo.bca89d36a0542315b0ef7d33d12ccf81.svg" xmlns:xlink="http://www.w3.org/1999/xlink">
    <g class="pwc" transform="translate(-128.49892 323.79178)">
        <path d="M805.3 177.5c-31.7 5.6-48.6 29.6-48.6 71.1 0 42.3 22.5 70.4 55.6 70.4 16.2 0 30.3-5.6 59.9-20.4v34.5c-35.9 16.9-57 21.1-85.2 21.1-31.7 0-54.2-7.7-71.8-26.8-18.3-18.3-28.2-42.3-28.2-69.7 0-59.9 45.1-101.4 110.6-101.4 43 0 73.2 20.4 73.2 49.3 0 19-14.1 32.4-34.5 32.4-10.6 0-19-3.5-31-9.9"></path>
        <path d="M646.8 257.7c28.9-35.9 39.4-50.7 39.4-68.3s-14.1-33.1-33.8-33.1c-11.3 0-21.8 6.3-26.8 12v73.9l-47.2 63.4V161.9h-45.1l-74.6 123.2V161.9h-25.4L365 177.4V195l37.3 3.5v152.8h47.2L521.3 233v118.3h52.8"></path>
        <path d="M222.2 327.5h10.6c38 0 59.2-23.2 59.2-69.7 0-38.7-16.9-59.9-48.6-59.9-4.2 0-10.6.7-21.1 2.8l-.1 126.8zm0 83.1l31 7v17.6H131.4v-17.6l28.2-7V197.9h-31v-17.6l73.9-22.5h19.7v25.4c34.5-21.1 46.5-24.6 64.8-24.6 40.8 0 71.8 38 71.8 90.8 0 60.6-41.5 102.1-104.9 102.1-7 0-19-.7-31.7-1.4"></path>
    </g>
    <g class="shape" shape-rendering="crispEdges">
        <path fill="#e669a2" d="M952.8 232.8v.1h.1v93h-.1 47.2v-93.1z"></path>
        <path fill="#f3be26" d="M858.6 93.1h94.1v139.8h-94.1z"></path>
        <path fill="#ee9c34" d="M636.3 0H822v36.4H636.3z"></path>
        <path fill="#f3bc87" d="M822 36.4h36.5V93H822z"></path>
        <path fill="#e3721c" d="M822 93V36.4H636.3V93H822z"></path>
        <path fill="#ad1b02" d="M450 325.9h186.2v46.6H450z"></path>
        <path fill="#e88d14" d="M822 93.1h36.5v139.8H822z"></path>
        <path fill="#d85604" d="M752.4 232.8H822V93.1H636.3v93h116.1z"></path>
        <path fill="#c14303" d="M636.3 186.1h116.1v46.7H636.3z"></path>
        <path fill="#db4e18" d="M858.6 232.9h94.1v93h-94.1z"></path>
        <path fill="#d1390d" d="M822 232.9h36.5v93H822z"></path>
        <path fill="#c22303" d="M752.5 232.9h69.4v93h-69.4z"></path>
        <path fill="#ad1b02" d="M636.3 232.9h116.1v93H636.3z"></path>
    </g>
</svg>