<?xml version="1.0" standalone="no"?>
<!DOCTYPE svg PUBLIC "-//W3C//DTD SVG 20010904//EN"
 "http://www.w3.org/TR/2001/REC-SVG-20010904/DTD/svg10.dtd">
<svg version="1.0" xmlns="http://www.w3.org/2000/svg"
 width="1000.000000pt" height="1000.000000pt" viewBox="0 0 1000.000000 1000.000000"
 preserveAspectRatio="xMidYMid meet">
<metadata>
Created by potrace 1.11, written by Peter Selinger 2001-2013
</metadata>
<g transform="translate(0.000000,1000.000000) scale(0.100000,-0.100000)"
fill="#000000" stroke="none">
<path d="M6364 7163 l1 -1628 1818 -2 1817 -3 0 465 c0 436 -1 465 -17 466
-10 0 -117 1 -237 2 l-219 2 0 697 0 696 -34 1 c-18 1 -39 2 -45 2 -7 0 -94 0
-193 -1 -99 -1 -184 -1 -190 0 -5 1 -14 2 -20 0 -13 -2 -128 -2 -140 0 -6 1
-12 2 -15 1 -3 -1 -73 -2 -155 -4 l-150 -2 0 278 c0 153 -2 282 -5 286 -3 4
-84 7 -180 7 l-175 -1 -3 183 -2 182 -928 0 -928 0 0 -1627z"/>
<path d="M4537 5532 l-37 -3 2 -232 3 -232 923 0 c813 0 925 2 931 15 7 17 7
437 -1 445 -5 5 -1760 12 -1821 7z"/>
<path d="M5156 3978 c-43 -9 -129 -55 -163 -88 -23 -20 -23 -21 -22 -385 0
-380 0 -381 -45 -436 -12 -14 -29 -36 -39 -50 -60 -83 -129 -176 -140 -189 -7
-8 -23 -31 -37 -50 -14 -19 -30 -42 -37 -50 -7 -8 -49 -64 -93 -124 l-80 -109
0 719 0 719 -225 -1 c-124 -1 -227 -3 -229 -5 -5 -6 -189 -310 -342 -564 -76
-126 -141 -231 -146 -233 -4 -2 -8 -8 -8 -12 0 -9 -225 -386 -240 -403 -4 -4
-7 264 -7 596 0 333 -3 609 -6 613 -5 9 -233 10 -277 1 -14 -3 -117 -26 -230
-52 -334 -75 -411 -93 -420 -94 -7 -1 -6 -169 2 -176 5 -5 45 -10 188 -21 41
-3 86 -7 100 -9 14 -2 37 -4 51 -4 l26 -1 0 -759 c0 -417 4 -764 8 -770 3 -7
14 -10 23 -7 18 6 43 6 167 5 44 0 100 -1 125 0 25 0 67 1 94 1 28 1 53 3 57
5 3 3 26 37 50 77 24 40 48 81 54 90 5 9 28 47 51 85 23 37 71 117 108 177 36
60 66 112 66 117 0 5 4 9 9 9 5 0 11 8 15 18 3 9 10 24 16 32 19 29 266 435
299 492 18 32 36 60 41 63 5 3 8 -256 8 -576 0 -319 3 -583 6 -586 3 -4 27 -5
53 -4 27 2 53 3 58 2 15 -1 334 -2 376 -2 34 1 41 8 125 117 49 64 94 121 99
128 6 6 33 40 60 76 27 36 54 70 60 77 19 23 31 38 82 105 28 37 56 73 62 80
6 7 70 90 143 183 72 94 167 215 211 270 163 205 249 337 290 444 30 82 28
198 -5 271 -67 147 -229 225 -392 188z"/>
<path d="M6547 3984 c-2 -2 -26 -7 -53 -10 -147 -17 -323 -77 -453 -154 -108
-64 -225 -179 -298 -293 -141 -217 -185 -462 -138 -762 2 -11 4 -20 5 -20 1 0
3 -10 6 -22 15 -82 69 -204 135 -304 37 -56 177 -205 234 -249 20 -15 182
-102 187 -100 2 1 15 -3 29 -8 14 -6 39 -12 55 -15 16 -3 36 -7 44 -10 76 -28
471 -29 600 -2 14 3 34 7 45 9 77 15 252 70 294 92 14 8 30 14 34 14 4 0 29
10 55 21 26 12 61 28 77 35 l30 12 1 167 c0 91 -2 168 -6 170 -4 2 -33 -9 -66
-24 -179 -87 -318 -142 -399 -156 -305 -55 -553 103 -644 411 -29 99 -35 149
-35 299 1 135 20 260 51 332 17 39 20 46 22 62 0 5 7 16 14 23 6 7 19 26 27
43 19 38 126 145 144 145 8 0 16 4 18 8 4 11 84 47 146 65 40 12 54 13 57 4 2
-7 3 -121 2 -255 l-2 -243 23 -6 c12 -3 22 -9 22 -14 0 -5 5 -9 12 -9 6 0 34
-11 62 -24 70 -32 164 -48 238 -41 35 4 67 10 73 13 5 4 18 8 28 9 10 2 32 13
50 25 131 93 171 207 134 388 -13 66 -132 216 -197 248 -14 7 -41 22 -60 33
-19 12 -35 21 -35 19 0 -1 -13 4 -30 10 -118 46 -246 67 -410 67 -68 0 -126
-1 -128 -3z"/>
<path d="M588 3928 c-84 -26 -155 -48 -158 -49 -3 -1 -15 -5 -28 -10 -13 -5
-27 -9 -31 -9 -5 0 -37 -9 -72 -21 -35 -11 -72 -22 -81 -25 -10 -2 -26 -6 -35
-8 -10 -3 -47 -14 -82 -26 -35 -12 -72 -22 -82 -23 -16 -1 -18 -12 -18 -92 l0
-91 142 1 c78 0 148 -1 154 -3 10 -3 13 -225 13 -1063 l0 -1059 -23 -9 c-13
-5 -37 -11 -53 -14 -16 -3 -36 -8 -44 -11 -8 -3 -26 -8 -40 -10 -14 -3 -46
-11 -72 -17 l-48 -11 0 -89 0 -89 608 2 607 3 1 83 c1 91 0 94 -66 105 -19 4
-66 13 -105 22 -38 9 -78 18 -88 20 -56 12 -52 -9 -50 302 0 159 1 294 2 301
1 11 17 12 74 8 39 -3 78 -6 85 -6 6 0 20 0 30 0 274 0 278 0 404 26 15 3 30
5 33 5 3 0 38 11 77 25 95 34 200 87 263 132 58 41 195 175 195 190 0 6 3 12
8 14 13 5 69 99 100 168 62 135 93 286 94 450 1 75 -10 209 -18 221 -2 3 -6
25 -9 49 -3 23 -8 46 -11 51 -3 5 -7 17 -9 26 -20 101 -112 267 -204 366 -81
88 -237 174 -351 193 -78 13 -211 9 -305 -10 -66 -13 -236 -93 -363 -170 -52
-31 -92 -50 -93 -43 0 6 -2 64 -2 127 l-2 115 -97 0 c-87 0 -112 -5 -250 -47z
m660 -363 c161 -21 288 -135 348 -310 24 -71 36 -161 37 -275 1 -135 -12 -224
-50 -350 -10 -33 -67 -140 -75 -140 -4 0 -8 -5 -8 -11 0 -6 -23 -33 -51 -59
-52 -50 -134 -96 -201 -115 -5 -2 -9 -3 -10 -5 -10 -7 -142 -22 -216 -23 -57
-2 -76 1 -81 13 -7 15 -6 1248 0 1255 5 4 57 12 131 21 29 4 54 7 55 8 4 3 68
-2 121 -9z"/>
</g>
</svg>
