<svg xmlns="http://www.w3.org/2000/svg" width="24" height="24" viewBox="0 0 24 24">
    <path fill-rule="evenodd" d="M12 22.058l-8.745-8.73c-2.338-2.374-2.338-6.184 0-8.558 1.126-1.129 2.654-1.763 4.249-1.763 1.594 0 3.123.634 4.248 1.763l.248.255.248-.255c1.125-1.129 2.654-1.763 4.248-1.763 1.595 0 3.123.634 4.249 1.763 2.334 2.375 2.334 6.182 0 8.558L12 22.058zM7.5 4.5c-1.198-.004-2.347.475-3.188 1.327-1.756 1.789-1.756 4.655 0 6.443L12 19.942l7.688-7.672c1.756-1.788 1.756-4.654 0-6.443-.845-.844-1.99-1.32-3.184-1.32-1.195 0-2.34.476-3.184 1.32L12 7.132l-1.313-1.297C9.845 4.984 8.697 4.503 7.5 4.5z"/>
</svg>
